<svg id="Layer_1" data-name="Layer 1" xmlns="http://www.w3.org/2000/svg" viewBox="0 0 1024 200"><defs><style>.cls-1{fill:#fff;}.cls-2{fill:#4db0d5;}.cls-3{fill:#afdbec;}</style></defs><path class="cls-1" d="M340.2,123.62H298L289,157.17H260.13L303,22.75H336.5l42.61,134.42H349.26Zm-5.76-21.82L330.74,88q-2.48-9-7.41-28.4l-3.92-15.24h-.82Q312.41,70.93,307.68,88L304,101.8Z"/><path class="cls-1" d="M392.29,149.45q-8.24-10.19-8.24-28.51V77.51h-14.2v-21l15.64-1.24,3.3-27.17h23.26V55.27H437V77.51H412.05v43.22q0,16.68,13.58,16.68a30.66,30.66,0,0,0,10.09-2.06l4.53,20.58a69.34,69.34,0,0,1-22,3.71Q400.52,159.64,392.29,149.45Z"/><path class="cls-1" d="M455.48,151.2q-6.18-8.44-6.18-23.88V12.46h28v116.1q0,4.32,1.65,6.27a4.76,4.76,0,0,0,3.7,2,15.1,15.1,0,0,0,3.71-.41l3.5,21a41,41,0,0,1-14.41,2.26Q461.65,159.64,455.48,151.2Z"/><path class="cls-1" d="M502.31,151Q494,142.35,494,129.17q0-16.26,13.79-25.21T552,91.71q-.62-16.47-16.88-16.47a36.71,36.71,0,0,0-13,2.47,98.15,98.15,0,0,0-14.41,7L497.68,66.18Q519.3,52.8,540.49,52.8q19.56,0,29.65,11.43T580.22,98.3v58.87H557.17l-2.06-10.7h-.62q-15.24,13.17-30.26,13.17Q510.64,159.64,502.31,151Zm40.55-15.54a46.34,46.34,0,0,0,9.16-7.1V108.79q-16.66,2.28-23.88,6.8t-7.2,11.32q0,5.35,3.29,8.13c2.2,1.85,5.28,2.78,9.27,2.78A18.79,18.79,0,0,0,542.86,135.45Z"/><path class="cls-1" d="M607.5,155.73a64,64,0,0,1-18.43-10.29l12.77-17.71A60.48,60.48,0,0,0,615.52,136a34.61,34.61,0,0,0,13.28,2.67q7,0,10.5-2.57a8.53,8.53,0,0,0,3.5-7.31A7.52,7.52,0,0,0,640,123a28.7,28.7,0,0,0-7.92-4.63q-5.16-2.16-10.3-4.22-12.15-4.74-19.86-11.63T594.22,84.3q0-14,10.5-22.75t27.79-8.75q18.93,0,35.2,12.77L655.15,82.45Q643,73.8,633.33,73.8c-4.25,0-7.45.82-9.57,2.47a7.91,7.91,0,0,0-3.19,6.59q0,4.11,4.11,6.69A46.12,46.12,0,0,0,634.15,94q5.36,1.86,7,2.47,13,4.74,20.48,11.43t7.52,19.25a29.39,29.39,0,0,1-4.84,16.57,33.16,33.16,0,0,1-14.1,11.63q-9.27,4.32-22.23,4.32A59.16,59.16,0,0,1,607.5,155.73Z"/><path class="cls-1" d="M682.94,22.75H714L736.46,84.5q3.09,8.86,5.35,16.88l2.68,8.44h.82L749,98.09Q752.31,87,753.34,84.5l21.82-61.75h31.08V157.17H780.51V103.85q0-11.31,2.68-36.64l.82-8h-.82l-10.91,31.5-20,54.55H736.25l-20-54.55-10.71-31.5h-.82l.82,8q2.68,25.32,2.68,36.64v53.32H682.94Z"/><path class="cls-1" d="M831.66,151q-8.32-8.64-8.33-21.82,0-16.26,13.79-25.21t44.26-12.25q-.61-16.47-16.88-16.47a36.67,36.67,0,0,0-13,2.47,97.66,97.66,0,0,0-14.41,7L827,66.18Q848.65,52.8,869.85,52.8q19.56,0,29.64,11.43T909.58,98.3v58.87H886.52l-2-10.7h-.62q-15.24,13.17-30.26,13.17Q840,159.64,831.66,151Zm40.56-15.54a46.63,46.63,0,0,0,9.16-7.1V108.79q-16.68,2.28-23.88,6.8t-7.21,11.32q0,5.35,3.3,8.13t9.26,2.78A18.83,18.83,0,0,0,872.22,135.45Z"/><path class="cls-1" d="M927.9,55.27h22.85l2,10.3h.83a54.63,54.63,0,0,1,14.1-9.27,37,37,0,0,1,15.33-3.5q18.54,0,29.24,14t10.7,37.88q0,16.66-6,29.23t-15.85,19.14a37.55,37.55,0,0,1-21.2,6.59q-13,0-24.91-10.91l.82,16.47v30.67h-28Zm60.52,73.29q5.76-8,5.76-23.68,0-29-19.14-29-9.48,0-19.15,9.88v43.64q8.24,7.22,17.71,7.2Q982.65,136.58,988.42,128.56Z"/><path class="cls-2" d="M169.36,77.36V113L179,129.38A30,30,0,0,1,194.56,132V58.39a30.09,30.09,0,1,0-37.31-10.17l-13,22.12,14.62,24.85Z"/><path class="cls-2" d="M109.51,129.38a29.88,29.88,0,0,0-6,0L83.42,95.19,68.8,120.05l13,22.11a30.08,30.08,0,1,0,49.42,0l13-22.11L129.62,95.19Z"/><path class="cls-2" d="M34.07,129.38,43.68,113V77.36l10.5,17.83L68.8,70.34l-13-22.12A30.08,30.08,0,1,0,18.48,58.39V132a30,30,0,0,1,15.59-2.62Z"/><path class="cls-1" d="M103.53,61a29.88,29.88,0,0,0,6,0l20.11,34.18,14.62-24.85-13-22.12a30.08,30.08,0,1,0-49.42,0l-13,22.12L83.42,95.19Z"/><path class="cls-1" d="M169.36,132V113l-10.5-17.84-14.62,24.86,13,22.11A30.2,30.2,0,0,1,169.36,132Z"/><path class="cls-1" d="M43.68,113v19a30.14,30.14,0,0,1,12.11,10.16l13-22.11L54.18,95.19Z"/><polygon class="cls-3" points="68.8 70.34 54.18 95.19 68.8 120.05 83.42 95.19 68.8 70.34"/><polygon class="cls-3" points="144.24 70.34 129.62 95.19 144.24 120.05 158.86 95.19 144.24 70.34"/><path class="cls-3" d="M182,129.23a29.49,29.49,0,0,0-3,.15L169.36,113v19a30.09,30.09,0,1,0,12.6-2.76Z"/><path class="cls-3" d="M31.08,129.23a29.49,29.49,0,0,1,3,.15L43.68,113v19a30.09,30.09,0,1,1-12.6-2.76Z"/></svg>